<?xml version="1.0" encoding="iso-8859-1"?>
<!-- Generator: Adobe Illustrator 18.0.0, SVG Export Plug-In . SVG Version: 6.00 Build 0)  -->
<!DOCTYPE svg PUBLIC "-//W3C//DTD SVG 1.1//EN" "http://www.w3.org/Graphics/SVG/1.1/DTD/svg11.dtd">
<svg version="1.1" id="Capa_1" xmlns="http://www.w3.org/2000/svg" xmlns:xlink="http://www.w3.org/1999/xlink" x="0px" y="0px"
	 viewBox="0 0 467.058 467.058" style="enable-background:new 0 0 467.058 467.058;" xml:space="preserve">
<g id="XMLID_119_">
	<polygon id="XMLID_131_" points="349.427,237.15 334.137,200.093 345.536,237.15 	"/>
	<path id="XMLID_130_" d="M111.441,103.37c0,3.233-0.399,6.374-0.951,9.446c4.797-0.161,9.377-1.11,13.622-2.781
		c15.198-5.991,25.984-20.722,25.984-38.043c0-22.637-18.339-40.97-40.97-40.97c-15.705,0-29.156,8.91-36.035,21.856
		C95.154,59.191,111.441,79.308,111.441,103.37z"/>
	<path id="XMLID_129_" d="M58.703,144.333c22.63,0,40.972-18.341,40.972-40.963c0-22.637-18.342-40.969-40.972-40.969
		c-22.644,0-40.97,18.332-40.97,40.969C17.734,125.992,36.06,144.333,58.703,144.333z"/>
	<path id="XMLID_128_" d="M193.456,303.513c-3.891-5.868-10.465-9.392-17.514-9.392c-15.688,0,26.109,0.345-70.232,0.345
		c-8.365,0-17.818-5.256-21.619-14.472c-2.037-4.925-33.584-80.567-34.764-85.761c1.885,5.209,41.262,75.81,43.957,80.675
		c3.095,5.585,8.963,9.048,15.338,9.048h50.805c9.682,0,17.527-7.844,17.527-17.52c0-9.675-7.846-17.52-17.527-17.52h-40.478
		c-2.543-4.589-37.14-68.105-40.664-71.958c3.524,3.149,25.679,34.91,28.697,39.154l-12.946-42.486
		c-4.015-13.229-16.501-21.419-28.928-21.419c-18.078,0-32.726,16.173-29.876,34.78l18.829,123.499
		c2.131,14.042,13.927,25.67,30.735,25.67c0.031,0.016,59.447,0.008,59.477,0.008l-29.768,70.686
		c-4.504,10.701,0.521,23.026,11.215,27.533c10.634,4.496,23.027-0.483,27.549-11.217l42.055-99.864
		C198.052,316.812,197.363,309.382,193.456,303.513z"/>
	<path id="XMLID_127_" d="M102.355,345.945c-70.586,0,15.199,0-55.11,0L27.862,218.28c-1.134-7.637-8.212-12.931-15.949-11.759
		c-7.661,1.164-12.915,8.304-11.751,15.958l21.174,139.587c1.026,6.855,6.925,11.918,13.85,11.918h67.17
		c7.736,0,14.02-6.279,14.02-14.017C116.374,351.799,109.066,345.945,102.355,345.945z"/>
	<g id="XMLID_125_">
		<path id="XMLID_126_" d="M322.003,345.945c-13.211,0-20.942,0-25.247,0c-3.603,0-4.806,0-4.806,0c-4.283,0-11.962,0-25.059,0
			L247.509,218.28c-1.148-7.637-8.226-12.931-15.949-11.759c-6.037,0.92-12.043,6.856-11.689,14.556
			c-2.865-2.069-6.205-3.539-10.021-3.539H169.37c-2.605-4.704-37.077-68.005-40.678-71.973c3.508,3.11,25.725,34.979,28.711,39.168
			l-12.945-42.486c-3.877-12.724-15.613-21.419-28.928-21.419c-2.604,0-5.146,0.436-7.629,1.087
			c-3.938,10.374-10.908,19.244-20.01,25.319c4.121,2.658,7.783,5.998,10.754,9.975c7.141,9.514,7.295,15.121,27.243,79.939
			c32.358,0,0.919,0,33.538,0c11.108,0,20.684,6.288,25.647,15.428h24.775c5.547,0,10.281-2.742,13.5-6.765
			c1.041,6.909,1.668,11.009,2.572,16.93h-37.2c0,6.235-1.962,15.713-5.3,20.47c8.043,1.876,15.166,6.742,19.84,13.797
			c6.098,9.147,7.186,20.685,2.91,30.85l-31.346,74.431c3.018,1.456,5.346,2.368,9.468,2.368c8.214,0,16.011-4.835,19.396-12.87
			l30.735-72.977c4.137,27.381,2.636,17.49,6.557,43.254c1.027,6.855,6.926,11.918,13.852,11.918h67.17
			c7.736,0,14.018-6.279,14.018-14.017C336.022,351.799,328.714,345.945,322.003,345.945z"/>
	</g>
	<path id="XMLID_124_" d="M377.052,184.734l-12.945-42.486c-3.877-12.724-15.615-21.419-28.943-21.419
		c-2.605,0-5.148,0.436-7.615,1.081c-3.922,10.38-10.908,19.25-20.009,25.325c4.121,2.658,7.783,5.998,10.755,9.975
		c2.881,3.838,5.179,8.173,6.65,12.984l2.666,8.679l32.221,58.276h19.244c11.107,0,20.684,6.288,25.646,15.428h24.775
		c9.682,0,17.527-7.844,17.527-17.52c0-9.676-7.846-17.52-17.527-17.52h-40.48c-2.527-4.581-37.137-68.135-40.692-71.98
		C351.786,148.576,374.125,180.62,377.052,184.734z"/>
	<path id="XMLID_123_" d="M331.089,103.37c0,3.233-0.399,6.374-0.951,9.446c4.795-0.161,9.377-1.11,13.621-2.781
		c15.197-5.991,25.984-20.722,25.984-38.043c0-22.637-18.34-40.97-40.969-40.97c-15.705,0-29.156,8.91-36.037,21.856
		C314.802,59.191,331.089,79.308,331.089,103.37z"/>
	<path id="XMLID_122_" d="M446.015,262.743c-15.25,0-37.982,0-37.982,0c0.123,1.111,0.336,2.544,0.336,3.693
		c0,6.235-1.961,12.02-5.3,16.776c8.042,1.876,15.167,6.742,19.841,13.797c6.098,9.147,7.186,20.685,2.91,30.85l-31.348,74.431
		c3.02,1.456,5.348,2.368,9.469,2.368c8.213,0,16.012-4.835,19.396-12.87l42.059-99.865
		C471.218,278.073,461.029,262.743,446.015,262.743z"/>
	<path id="XMLID_121_" d="M278.351,144.333c22.631,0,40.971-18.341,40.971-40.963c0-22.637-18.34-40.969-40.971-40.969
		c-22.645,0-40.969,18.332-40.969,40.969C237.382,125.992,255.706,144.333,278.351,144.333z"/>
	<path id="XMLID_120_" d="M413.103,303.513c-3.891-5.868-10.465-9.392-17.512-9.392c0,0-10.311,0.345-70.234,0.345
		c-8.365,0-17.817-5.256-21.617-14.472c-2.039-4.925-33.584-80.567-34.764-85.761c1.883,5.209,41.26,75.81,43.955,80.675
		c3.096,5.585,8.964,9.048,15.338,9.048h50.807c9.682,0,17.525-7.844,17.525-17.52c0-9.675-7.844-17.52-17.525-17.52h-40.48
		c-2.604-4.727-37.063-67.989-40.694-71.988c3.523,3.125,25.725,34.971,28.729,39.184l-12.947-42.486
		c-5.271-17.358-25.357-26.566-42.271-18.232c-12.533,6.213-18.433,19.16-16.533,31.585l18.83,123.506
		c2.131,14.042,13.928,25.67,30.735,25.67c0.031,0.016,59.448,0.008,59.477,0.008l-29.768,70.686
		c-4.505,10.701,0.521,23.026,11.214,27.533c10.635,4.496,23.029-0.483,27.549-11.217l42.057-99.864
		C417.701,316.812,417.009,309.382,413.103,303.513z"/>
</g>
<g>
</g>
<g>
</g>
<g>
</g>
<g>
</g>
<g>
</g>
<g>
</g>
<g>
</g>
<g>
</g>
<g>
</g>
<g>
</g>
<g>
</g>
<g>
</g>
<g>
</g>
<g>
</g>
<g>
</g>
</svg>
